<mxfile host="app.diagrams.net" modified="2023-01-24T08:07:31.249Z" agent="5.0 (Windows NT 10.0; Win64; x64) AppleWebKit/537.36 (KHTML, like Gecko) Chrome/109.0.0.0 Safari/537.36" etag="Izqld9hdEjHGo-7BsDmc" version="20.8.10" type="github">
  <diagram name="Page-1" id="03018318-947c-dd8e-b7a3-06fadd420f32">
    <mxGraphModel dx="2049" dy="1091" grid="1" gridSize="10" guides="1" tooltips="1" connect="1" arrows="1" fold="1" page="1" pageScale="1" pageWidth="1100" pageHeight="850" background="none" math="0" shadow="0">
      <root>
        <mxCell id="0" />
        <mxCell id="1" parent="0" />
        <mxCell id="pJeZwA110SPpA-UZuZtb-1" value="LOGO" style="rounded=0;whiteSpace=wrap;html=1;fontSize=60;" vertex="1" parent="1">
          <mxGeometry x="360" y="20" width="380" height="100" as="geometry" />
        </mxCell>
        <mxCell id="pJeZwA110SPpA-UZuZtb-14" style="edgeStyle=orthogonalEdgeStyle;rounded=0;orthogonalLoop=1;jettySize=auto;html=1;fontSize=12;" edge="1" parent="1" source="pJeZwA110SPpA-UZuZtb-3">
          <mxGeometry relative="1" as="geometry">
            <mxPoint x="1250" y="1230" as="targetPoint" />
          </mxGeometry>
        </mxCell>
        <mxCell id="pJeZwA110SPpA-UZuZtb-3" value="Creative Writing" style="rounded=0;whiteSpace=wrap;html=1;fontSize=60;" vertex="1" parent="1">
          <mxGeometry x="30" y="970" width="1040" height="330" as="geometry" />
        </mxCell>
        <mxCell id="pJeZwA110SPpA-UZuZtb-6" value="Creeaza cont" style="rounded=1;whiteSpace=wrap;html=1;fontSize=12;" vertex="1" parent="1">
          <mxGeometry x="780" y="40" width="120" height="60" as="geometry" />
        </mxCell>
        <mxCell id="pJeZwA110SPpA-UZuZtb-7" value="Log in" style="rounded=1;whiteSpace=wrap;html=1;fontSize=12;" vertex="1" parent="1">
          <mxGeometry x="910" y="40" width="120" height="60" as="geometry" />
        </mxCell>
        <mxCell id="pJeZwA110SPpA-UZuZtb-13" style="edgeStyle=orthogonalEdgeStyle;rounded=0;orthogonalLoop=1;jettySize=auto;html=1;exitX=0.5;exitY=1;exitDx=0;exitDy=0;fontSize=12;" edge="1" parent="1" source="pJeZwA110SPpA-UZuZtb-10" target="pJeZwA110SPpA-UZuZtb-12">
          <mxGeometry relative="1" as="geometry" />
        </mxCell>
        <mxCell id="pJeZwA110SPpA-UZuZtb-10" value="Welcome .." style="rounded=0;whiteSpace=wrap;html=1;fontSize=60;" vertex="1" parent="1">
          <mxGeometry x="30" y="190" width="1040" height="500" as="geometry" />
        </mxCell>
        <mxCell id="pJeZwA110SPpA-UZuZtb-12" value="Cine suntem noi?" style="rounded=0;whiteSpace=wrap;html=1;fontSize=60;" vertex="1" parent="1">
          <mxGeometry x="40" y="730" width="1030" height="200" as="geometry" />
        </mxCell>
        <mxCell id="pJeZwA110SPpA-UZuZtb-19" style="edgeStyle=orthogonalEdgeStyle;rounded=0;orthogonalLoop=1;jettySize=auto;html=1;fontSize=12;" edge="1" parent="1" source="pJeZwA110SPpA-UZuZtb-15" target="pJeZwA110SPpA-UZuZtb-20">
          <mxGeometry relative="1" as="geometry">
            <mxPoint x="1620" y="1250" as="targetPoint" />
          </mxGeometry>
        </mxCell>
        <mxCell id="pJeZwA110SPpA-UZuZtb-15" value="Creative Writing" style="strokeWidth=1;shadow=0;dashed=0;align=center;html=1;shape=mxgraph.mockup.containers.window;align=left;verticalAlign=top;spacingLeft=8;strokeColor2=#008cff;strokeColor3=#c4c4c4;fontColor=#666666;mainText=;fontSize=17;labelBackgroundColor=none;" vertex="1" parent="1">
          <mxGeometry x="1250" y="1190" width="230" height="110" as="geometry" />
        </mxCell>
        <mxCell id="pJeZwA110SPpA-UZuZtb-25" style="edgeStyle=orthogonalEdgeStyle;rounded=0;orthogonalLoop=1;jettySize=auto;html=1;fontSize=12;" edge="1" parent="1" source="pJeZwA110SPpA-UZuZtb-17">
          <mxGeometry relative="1" as="geometry">
            <mxPoint x="1580" y="1520" as="targetPoint" />
          </mxGeometry>
        </mxCell>
        <mxCell id="pJeZwA110SPpA-UZuZtb-17" value="Books &amp;amp; Movies" style="strokeWidth=1;shadow=0;dashed=0;align=center;html=1;shape=mxgraph.mockup.containers.window;align=left;verticalAlign=top;spacingLeft=8;strokeColor2=#008cff;strokeColor3=#c4c4c4;fontColor=#666666;mainText=;fontSize=17;labelBackgroundColor=none;" vertex="1" parent="1">
          <mxGeometry x="1240" y="1450" width="230" height="70" as="geometry" />
        </mxCell>
        <mxCell id="pJeZwA110SPpA-UZuZtb-24" style="edgeStyle=orthogonalEdgeStyle;rounded=0;orthogonalLoop=1;jettySize=auto;html=1;fontSize=12;" edge="1" parent="1" source="pJeZwA110SPpA-UZuZtb-18">
          <mxGeometry relative="1" as="geometry">
            <mxPoint x="1230" y="1490" as="targetPoint" />
          </mxGeometry>
        </mxCell>
        <mxCell id="pJeZwA110SPpA-UZuZtb-18" value="Books &amp;amp; Movies&amp;nbsp;" style="rounded=0;whiteSpace=wrap;html=1;fontSize=60;" vertex="1" parent="1">
          <mxGeometry x="30" y="1320" width="1040" height="330" as="geometry" />
        </mxCell>
        <mxCell id="pJeZwA110SPpA-UZuZtb-20" value="Inscrie-te" style="shape=ext;double=1;rounded=0;whiteSpace=wrap;html=1;fontSize=12;" vertex="1" parent="1">
          <mxGeometry x="1560" y="1210" width="120" height="80" as="geometry" />
        </mxCell>
        <mxCell id="pJeZwA110SPpA-UZuZtb-23" value="Inscrie-te" style="shape=ext;double=1;rounded=0;whiteSpace=wrap;html=1;fontSize=12;" vertex="1" parent="1">
          <mxGeometry x="1600" y="1470" width="120" height="80" as="geometry" />
        </mxCell>
      </root>
    </mxGraphModel>
  </diagram>
</mxfile>
